<?xml version="1.0" encoding="UTF-8"?><svg id="Layer_2" xmlns="http://www.w3.org/2000/svg" xmlns:xlink="http://www.w3.org/1999/xlink" viewBox="0 0 1529.06 354.57"><defs><style>.cls-1{fill:url(#linear-gradient);}.cls-1,.cls-2,.cls-3,.cls-4,.cls-5,.cls-6,.cls-7,.cls-8,.cls-9,.cls-10,.cls-11,.cls-12,.cls-13,.cls-14,.cls-15,.cls-16,.cls-17,.cls-18{stroke-width:0px;}.cls-2{fill:url(#linear-gradient-11);}.cls-3{fill:url(#linear-gradient-12);}.cls-4{fill:url(#linear-gradient-13);}.cls-5{fill:url(#linear-gradient-10);}.cls-6{fill:url(#linear-gradient-17);}.cls-7{fill:url(#linear-gradient-16);}.cls-8{fill:url(#linear-gradient-15);}.cls-9{fill:url(#linear-gradient-18);}.cls-10{fill:url(#linear-gradient-14);}.cls-11{fill:url(#linear-gradient-4);}.cls-12{fill:url(#linear-gradient-2);}.cls-13{fill:url(#linear-gradient-3);}.cls-14{fill:url(#linear-gradient-8);}.cls-15{fill:url(#linear-gradient-9);}.cls-16{fill:url(#linear-gradient-7);}.cls-17{fill:url(#linear-gradient-5);}.cls-18{fill:url(#linear-gradient-6);}</style><linearGradient id="linear-gradient" x1="-4.75" y1="503.71" x2="1564.33" y2="279.94" gradientUnits="userSpaceOnUse"><stop offset="0" stop-color="#004169"/><stop offset=".59" stop-color="#005977"/><stop offset="1" stop-color="#00657e"/></linearGradient><linearGradient id="linear-gradient-2" x1="-8.5" y1="477.4" x2="1560.58" y2="253.63" xlink:href="#linear-gradient"/><linearGradient id="linear-gradient-3" x1="-14.47" y1="435.59" x2="1554.62" y2="211.81" xlink:href="#linear-gradient"/><linearGradient id="linear-gradient-4" x1="-7" y1="487.95" x2="1562.08" y2="264.17" xlink:href="#linear-gradient"/><linearGradient id="linear-gradient-5" x1="-11.38" y1="457.27" x2="1557.71" y2="233.49" xlink:href="#linear-gradient"/><linearGradient id="linear-gradient-6" x1="-12.88" y1="446.75" x2="1556.21" y2="222.97" xlink:href="#linear-gradient"/><linearGradient id="linear-gradient-7" x1="-40.55" y1="252.69" x2="1528.53" y2="28.91" xlink:href="#linear-gradient"/><linearGradient id="linear-gradient-8" x1="-53.65" y1="160.84" x2="1515.43" y2="-62.94" xlink:href="#linear-gradient"/><linearGradient id="linear-gradient-9" x1="-37.28" y1="275.64" x2="1531.8" y2="51.86" xlink:href="#linear-gradient"/><linearGradient id="linear-gradient-10" x1="-55.84" y1="145.53" x2="1513.25" y2="-78.25" xlink:href="#linear-gradient"/><linearGradient id="linear-gradient-11" x1="-53.21" y1="163.94" x2="1515.87" y2="-59.84" xlink:href="#linear-gradient"/><linearGradient id="linear-gradient-12" x1="-34.92" y1="292.2" x2="1534.17" y2="68.42" xlink:href="#linear-gradient"/><linearGradient id="linear-gradient-13" x1="-61.81" y1="103.65" x2="1507.28" y2="-120.13" xlink:href="#linear-gradient"/><linearGradient id="linear-gradient-14" x1="-49.38" y1="190.79" x2="1519.7" y2="-32.99" xlink:href="#linear-gradient"/><linearGradient id="linear-gradient-15" x1="-38.55" y1="266.71" x2="1530.53" y2="42.93" xlink:href="#linear-gradient"/><linearGradient id="linear-gradient-16" x1="-46.25" y1="212.72" x2="1522.83" y2="-11.06" xlink:href="#linear-gradient"/><linearGradient id="linear-gradient-17" x1="-37.35" y1="275.15" x2="1531.73" y2="51.37" xlink:href="#linear-gradient"/><linearGradient id="linear-gradient-18" x1="-48.18" y1="199.2" x2="1520.9" y2="-24.58" xlink:href="#linear-gradient"/></defs><g id="Layer_1-2"><path class="cls-1" d="m1447.92,271.29c-14.82,0-28.46,8.07-35.59,21.06l-.99,1.8c-6.4,11.65,2.03,25.89,15.32,25.89h33.47c14.82,0,28.46-8.07,35.59-21.06l13.05-23.77h3.27l2.13-3.92h-66.26Zm29.69,15.36l-6.24,11.37c-5.72,10.04-18.41,18.1-28.51,18.1s-14.11-8.35-8.53-18.63l2.02-3.68c5.58-10.27,18.44-18.61,28.71-18.61h27.93c-6.54,1.13-12.18,5.62-15.38,11.44Z"/><path class="cls-12" d="m1243.94,271.29c-14.82,0-28.46,8.07-35.59,21.06l-.99,1.8c-6.4,11.65,2.03,25.89,15.32,25.89h16.01c6.9,0,14.63-3.14,21.11-8.09l-4.44,8.09h35.14s2.16-3.92,2.16-3.92h-5.27c-2.7,0-3.72-2.16-2.33-4.84l19.8-36.07h3.28s2.13-3.92,2.13-3.92h-66.32Zm29.76,15.36l-5.87,10.7c-5.63,10.35-18.59,18.77-28.94,18.77s-14.06-8.35-8.47-18.63l2.02-3.68c5.58-10.27,18.44-18.6,28.71-18.6h27.93c-6.18,1.01-12.43,5.69-15.38,11.44Z"/><path class="cls-13" d="m1121.64,237.11h-35.11l-2.15,3.91h5.23c2.73,0,3.75,2.2,2.29,4.92l-13.91,25.35h-38.19c-14.82,0-28.46,8.07-35.59,21.06l-.99,1.8c-6.4,11.65,2.03,25.89,15.32,25.89h16.01c6.9,0,14.63-3.14,21.11-8.09l-4.44,8.09h35.14s2.16-3.92,2.16-3.92h-5.27c-2.7,0-3.72-2.16-2.33-4.84l19.8-36.07h3.28s2.13-3.92,2.13-3.92h-3.26l18.76-34.19Zm-52.07,49.55l-5.87,10.7c-5.63,10.35-18.59,18.77-28.94,18.77s-14.06-8.35-8.47-18.63l2.02-3.68c5.58-10.27,18.44-18.6,28.71-18.6h27.93c-6.18,1.01-12.43,5.69-15.38,11.44Z"/><path class="cls-11" d="m1398.34,299.66l15.57-28.37h-31.73l-2.16,3.92h15.92c-6.54,1.13-12.16,5.62-15.35,11.44l-5.98,10.89c-5.58,10.27-18.47,18.58-28.74,18.58h-27.86c6.54-1.13,12.17-5.63,15.36-11.44l18.34-33.39h-35.14l-2.16,3.92h5.27c2.7,0,3.72,2.16,2.33,4.84l-21.95,39.99h63.03c14.56,0,28.03-7.8,35.26-20.39"/><path class="cls-17" d="m1172.01,294.75c-1.49,2.75-4.93,4.98-7.68,4.98h-5.24l-2.16,3.92h35.07l15.6-28.43h3.85l2.15-3.92h-49.4c-6.9,0-14.63,3.14-21.11,8.09l4.44-8.09h-35.14s-2.16,3.92-2.16,3.92h5.27c2.7,0,3.72,2.16,2.33,4.84l-21.95,39.99h35.13l2.16-3.92h-5.24c-2.72,0-3.74-2.19-2.3-4.91l9.58-17.48c5.7-10.24,18.52-18.52,28.79-18.52h27.79c-6.54,1.13-12.18,5.62-15.38,11.44l-4.43,8.09Z"/><path class="cls-18" d="m955.81,271.29c.38-.43.62-.98.62-1.6,0-1.36-1.1-2.46-2.46-2.46s-2.46,1.1-2.46,2.46c0,.62.25,1.16.62,1.6h-37.53c-14.41,0-27.89,7.95-35.17,20.33h25.15c6.1-9.25,17.86-16.41,27.4-16.41h55.68c-6.54,1.13-12.17,5.61-15.37,11.43l-3.17,5.85c-3.26,6-10.77,10.86-16.76,10.86h-31.46l-2.16,3.93h24.5c9.51.53,12.9,8.67,7.5,18.6l-3.37,6.16c-5.58,10.27-18.44,18.6-28.71,18.6h-27.74c-9.88.07-14.38-8.05-8.36-18.87l2.02-3.71c2.37-4.37,6.15-8.45,10.4-11.63h-26.63c-3.23,2.96-6.1,6.54-8.27,10.5l-.95,1.74c-6.4,11.65,2.03,25.89,15.33,25.89h61.73c14.6,0,28.03-7.85,35.24-20.51l1.21-2.21c5.23-9.53.54-20.78-8.6-24.57h3.65c10.28,0,23.13-8.33,28.71-18.6l7.36-13.45h3.25l2.13-3.93h-53.34Z"/><path class="cls-16" d="m1108.48,79.12c3.66-40.13-46.79-46.82-81.02-29.71-34.51,15.14-72.09,59.84-53.84,91.07,17.02,25.32,92.91,9.3,103.27,7.58,0,0,9.68-18.71,11.01-21.27-17.77,6.62-39.7,8.65-58.3,8.61-26.19-.07-40.66-6.28-32.52-27.79,0,0,100.82,0,100.83,0,3.57-7.65,9.57-20.56,10.56-28.49Zm-25.94,6.26c-.25.83-.55,1.65-.91,2.44h-74.23c12.05-17.44,33.95-28.69,52.46-27.37,13.96,1.11,26.47,10.31,22.68,24.93Z"/><path class="cls-14" d="m577.99,40.95c-.6,1.16-9.44,18.07-10.32,19.77h-18.7c-10.72,20.62-30.17,56.95-34,65.2-7,15.09,23.31,8.17,33.68,1.29h0c-1.38,2.38-10.55,20.84-10.55,20.84-4.61,2.5-52.77,17.88-50.97-13.13.37-8.73,6.37-18.46,10.65-26.76,6.92-13.24,17.83-34.17,24.76-47.44h-18.66l.37-.72,9.94-19.05h18.67c.05-.12,21.11-40.71,21.19-40.86h26.43c-1.4,2.69-20.54,39.63-21.19,40.86h18.7Z"/><path class="cls-15" d="m1399.29,40.95c-.6,1.16-9.44,18.07-10.32,19.77h-18.7c-10.72,20.62-30.17,56.95-34,65.2-7,15.09,23.31,8.17,33.68,1.29h0c-1.38,2.38-10.55,20.84-10.55,20.84-4.61,2.5-52.77,17.88-50.97-13.13.37-8.73,6.37-18.46,10.65-26.76,6.92-13.24,17.83-34.17,24.76-47.44h-18.66l.37-.72,9.94-19.05h18.67c.05-.12,21.11-40.71,21.19-40.86h26.43c-1.4,2.69-20.54,39.63-21.19,40.86h18.7Z"/><path class="cls-5" d="m341.82,79.12c3.66-40.13-46.79-46.82-81.02-29.71-34.51,15.14-72.09,59.84-53.84,91.07,17.02,25.32,92.91,9.3,103.27,7.58,0,0,9.68-18.71,11.01-21.27-17.77,6.62-39.7,8.65-58.3,8.61-26.19-.07-40.66-6.28-32.52-27.79,0,0,100.82,0,100.83,0,3.57-7.65,9.57-20.56,10.56-28.49Zm-25.94,6.26c-.25.83-.55,1.65-.91,2.44h-74.23c12.05-17.44,33.95-28.69,52.46-27.37,13.96,1.11,26.47,10.31,22.68,24.93Z"/><path class="cls-2" d="m479.78,81.49c4.11-49.71-54.43-53.07-88.48-13.9h0c-3.99,4.24-7.75,8.88-11.18,13.9h-.06c6.31-10.2,19.01-30.73,25.31-40.9h-26.42c-18.02,34.56-41.28,79.09-59.38,113.76h26.44c6.79-12.98,16.22-31.09,22.94-43.95,13.72-24.05,42.05-48.27,67.21-50.04,0,0,.84-.04,1.29-.07,20.19-1.23,21.62,20.2,13.47,36.27-6.85,13.51-23.66,44.73-30.5,57.79h26.44c5.8-11.11,18.31-34.84,24.08-46.13,4.66-9.11,8.09-17.86,8.85-26.73Z"/><path class="cls-3" d="m1528.86,81.49c4.11-49.71-54.43-53.07-88.48-13.9h0c-3.99,4.24-7.75,8.88-11.18,13.9h-.06c6.31-10.2,23.07-34.49,46.43-81.44h-26.25c-18.02,34.56-62.57,119.62-80.66,154.3h26.44c6.79-12.98,16.22-31.09,22.94-43.95,13.72-24.05,42.05-48.27,67.21-50.04,0,0,.84-.04,1.29-.07,20.19-1.23,21.62,20.2,13.47,36.27-6.85,13.51-23.66,44.73-30.5,57.79h26.44c5.8-11.11,18.31-34.84,24.08-46.13,4.66-9.11,8.09-17.86,8.85-26.73Z"/><path class="cls-4" d="m0,154.34L80.72.02h27.99l-8.57,120.9L215.87.02l31.55-.02-80.52,154.34h-26.45l58.8-112.65-108.05,112.65h-13.28l7.96-113.61-58.98,113.61H0Z"/><path class="cls-10" d="m693.71,154.34L774.26.02h26.9l-81.02,154.32h-26.42Z"/><path class="cls-8" d="m1236.91,154.34L1317.46.02h26.9l-81.02,154.32h-26.42Z"/><path class="cls-7" d="m793.53,154.36L874.02.04h26.4l-31.49,60.37h87.5L987.84.04h26.46l-80.38,154.32h-26.62l38.15-72.91h-87.49l-38.04,72.91h-26.38Z"/><path class="cls-6" d="m1252.32,40.38l-6.86,13.15c-50.68-36.76-135.82,11.43-136.19,70.16.95,20.09,20.35,32.2,38.58,30.43,27.72-2.68,52.95-19.44,70.18-40.8l-1.87,3.04h-.01c-1.8,2.92-7.18,11.66-8.9,14.44h-.01c-1.4,2.28-9.17,14.87-10.75,17.43h-.01c-.48.8-3.22,5.14-3.53,5.89h26.44c19.38-37.12,40-76.62,59.38-113.75h-26.45Zm-17.72,33.95c-1.92,3.8-5.06,9.63-7.03,13.47-5.14,10.23-10.41,21.49-20.43,27.94-14.59,10.27-66.62,30.43-71.92,4.39-1.41-11.68,7.37-23.52,14.67-32.33,16-17.36,40.39-30.78,63.04-27.15,8.57,1.09,17.32,4.3,24.02,9.18l-2.35,4.5Z"/><path class="cls-9" d="m708.93,40.38l-6.86,13.15c-50.68-36.76-135.82,11.43-136.19,70.16.95,20.09,20.35,32.2,38.58,30.43,27.72-2.68,52.95-19.44,70.18-40.8l-1.87,3.04h-.01c-1.8,2.92-7.18,11.66-8.9,14.44h-.01c-1.4,2.28-9.17,14.87-10.75,17.43h-.01c-.48.8-3.22,5.14-3.53,5.89h26.44c19.38-37.12,40-76.62,59.38-113.75h-26.45Zm-17.72,33.95c-1.92,3.8-5.06,9.63-7.03,13.47-5.14,10.23-10.41,21.49-20.43,27.94-14.59,10.27-66.62,30.43-71.92,4.39-1.41-11.68,7.37-23.52,14.67-32.33,16-17.36,40.39-30.78,63.04-27.15,8.57,1.09,17.32,4.3,24.02,9.18l-2.35,4.5Z"/></g></svg>